<?xml version="1.0" encoding="UTF-8"?>
<svg version="1.1" xmlns="http://www.w3.org/2000/svg" width="2245" height="1587">
<path d="M0 0 C12.19549608 -0.0477137 24.39098604 -0.0840259 36.5865491 -0.10951438 C43.30629731 -0.12387154 50.02592382 -0.14348376 56.74561583 -0.17618271 C62.96894441 -0.20630948 69.19214558 -0.22188156 75.41554367 -0.226639 C77.66868272 -0.2308229 79.92181992 -0.24008345 82.17491209 -0.25520869 C100.45480998 -0.37320319 118.68369358 0.7983956 136.40303122 5.63778404 C137.33341208 5.888265 138.26379294 6.13874596 139.22236716 6.39681724 C161.75690718 12.74660818 181.73615741 22.83280838 200.91474997 36.08700279 C202.59187983 37.23999661 204.26929777 38.39257148 205.94697654 39.54476646 C206.79932883 40.13051445 207.65168112 40.71626244 208.52986228 41.31976036 C216.00314984 46.44323925 223.51773767 51.50628777 231.02803122 56.57528404 C232.38311789 57.4904026 232.38311789 57.4904026 233.76558005 58.42400841 C250.31105422 69.59162713 266.95580696 80.60459447 283.66059958 91.53231529 C291.52595348 96.68561953 299.31797422 101.8584291 306.87080466 107.46273521 C310.04556918 109.76908362 313.35391216 111.80598437 316.71553122 113.82528404 C324.08040536 118.33711486 331.10776219 123.24830616 338.13349997 128.26669029 C342.37049977 131.28965582 346.69181681 134.17354093 351.03584372 137.04012779 C353.89473505 138.94483672 356.72713477 140.88211499 359.55293357 142.83529381 C362.29529022 144.73053683 365.04380124 146.61672222 367.79365622 148.50106529 C369.39106235 149.59588616 370.98733415 150.69236317 372.58271872 151.79012779 C403.50950918 173.01166419 431.90708412 182.47871376 468.99440085 187.72558311 C475.62541484 188.66705639 482.25072241 189.64700039 488.87568747 190.62997154 C489.55427062 190.73047876 490.23285376 190.83098598 490.93200003 190.93453888 C512.46492981 194.13000872 533.89998238 197.89063753 555.33125388 201.7012606 C561.52955373 202.80219383 567.73101852 203.88384814 573.93377387 204.95935635 C579.90473531 205.9955987 585.8733132 207.04493904 591.84044348 208.10301594 C595.43234867 208.73968422 599.02488897 209.37174421 602.61988913 209.99071983 C629.14759237 214.56723006 654.27975324 220.06450164 675.09053122 238.07528404 C675.92842185 238.72368248 676.76631247 239.37208092 677.62959372 240.04012779 C689.9149163 250.19989456 697.31967179 266.9170292 704.10224997 281.0293856 C705.09341256 283.08124887 706.10621922 285.12134269 707.12178122 287.16122154 C712.36939972 297.83515443 716.43634063 308.7638197 720.09053122 320.07528404 C720.44824607 321.17356529 720.44824607 321.17356529 720.81318747 322.29403404 C724.48498912 333.70809174 727.0243678 345.2711163 729.09053122 357.07528404 C729.31869529 358.34243248 729.54685935 359.60958092 729.78193747 360.91512779 C733.43881825 384.87664727 733.58946159 411.44727867 719.84053122 432.32528404 C710.64719855 444.69557833 698.54801046 451.06742534 683.49678122 453.75887779 C672.5201053 455.2022394 661.17301392 454.28853903 650.16426169 453.60580162 C623.50859418 451.9951338 595.86141088 455.59232754 574.88740622 473.62997154 C573.0454397 475.11155331 571.23584711 476.09755158 569.09053122 477.07528404 C569.09053122 477.73528404 569.09053122 478.39528404 569.09053122 479.07528404 C567.92805635 480.27194936 566.75942447 481.46314966 565.56318747 482.62606529 C560.69286361 487.41887737 556.8338112 492.74849577 553.02803122 498.38778404 C552.61657859 498.99154869 552.20512595 499.59531334 551.78120505 500.21737389 C548.35465918 505.37800721 545.91819206 510.41996237 543.09053122 516.07528404 C604.14053122 516.07528404 665.19053122 516.07528404 728.09053122 516.07528404 C728.09053122 519.70528404 728.09053122 523.33528404 728.09053122 527.07528404 C264.77053122 527.07528404 -198.54946878 527.07528404 -675.90946878 527.07528404 C-675.90946878 522.78528404 -675.90946878 518.49528404 -675.90946878 514.07528404 C-674.85186412 514.07381748 -673.79425947 514.07235092 -672.70460618 514.07083992 C-646.95607319 514.03422485 -621.20767007 513.97474882 -595.45924485 513.8913813 C-583.00742931 513.85159296 -570.55567695 513.81919936 -558.10380471 513.80428795 C-547.24918918 513.79127044 -536.39471268 513.76430305 -525.54017545 513.72067098 C-519.79418441 513.69805862 -514.04836485 513.68237324 -508.30232538 513.68340019 C-502.88993935 513.68414692 -497.47793234 513.66619047 -492.06564439 513.63411621 C-490.08319179 513.62562307 -488.10069664 513.62386328 -486.11823381 513.62948135 C-472.00615761 513.85676428 -472.00615761 513.85676428 -458.90946878 509.07528404 C-462.01394816 505.8667439 -465.20273901 502.94695597 -468.66654886 500.13290123 C-476.21293903 493.98001126 -481.28105796 488.31918165 -485.75639261 479.5762606 C-492.05555351 467.31600822 -499.62879766 459.79067925 -512.90946878 455.07528404 C-520.93959405 452.72929408 -529.02641559 452.83471962 -537.30628885 452.92495445 C-539.7148229 452.95087987 -542.12313189 452.96361479 -544.53178323 452.97323326 C-550.51772117 452.99974055 -556.50344546 453.04788565 -562.48924173 453.09603599 C-567.55195424 453.1359823 -572.61458171 453.16706791 -577.67741311 453.18716148 C-580.01566625 453.19984309 -582.35355538 453.2248576 -584.69169534 453.25057701 C-592.37597918 453.30397608 -599.93702284 453.02049754 -607.58134378 452.20028404 C-608.31197534 452.12335319 -609.0426069 452.04642235 -609.79537881 451.96716026 C-620.97203553 450.638245 -630.44897504 446.68587418 -637.90946878 438.07528404 C-647.48829002 425.07702089 -653.19817579 408.1226883 -653.34696878 392.01278404 C-653.35703958 391.31064781 -653.36711038 390.60851158 -653.37748636 389.88509849 C-653.2988109 385.23989848 -652.47967436 381.9502767 -649.90946878 378.07528404 C-646.10030881 375.01995083 -642.35403076 374.44858593 -637.59696878 373.70028404 C-630.26313578 372.39486889 -624.57065821 370.59492168 -619.97196878 364.51278404 C-617.7945215 359.51746382 -617.78308888 354.88398132 -617.82768167 349.49325279 C-617.83074823 348.62746605 -617.83381479 347.76167931 -617.83697427 346.8696566 C-617.84412657 344.98830973 -617.85351515 343.10697035 -617.86486924 341.22564415 C-617.88232187 338.22898586 -617.89258198 335.23238149 -617.90078653 332.23568443 C-617.92515936 323.71406664 -617.96028288 315.19252005 -618.00541604 306.67098717 C-618.03254241 301.45326953 -618.04936432 296.2355949 -618.06028474 291.01781944 C-618.06641022 289.04707999 -618.07630527 287.07634786 -618.09036363 285.10564903 C-618.27079237 259.54467659 -618.0656521 233.013391 -599.37821878 213.36044029 C-586.4610601 201.4038931 -569.90977921 198.34801713 -553.15946878 195.63778404 C-551.39696327 195.34318149 -549.63467762 195.04726084 -547.87260354 194.75008873 C-545.18030953 194.29653089 -542.48785525 193.84421015 -539.7944938 193.39703087 C-534.03686569 192.44091227 -528.28888663 191.44141793 -522.54618753 190.39950279 C-510.09048001 188.14435392 -497.67310039 185.94542895 -485.09696878 184.45028404 C-472.00014232 182.85269259 -458.86618793 180.19853918 -449.22978128 170.36044029 C-447.90946878 169.07528404 -447.90946878 169.07528404 -445.90946878 169.07528404 C-445.51477395 168.21495567 -445.51477395 168.21495567 -445.1121055 167.33724693 C-443.83725242 164.9394569 -442.37108919 162.99645541 -440.66728128 160.88387779 C-437.15228318 156.4360882 -433.94360521 151.84212859 -430.78446878 147.13778404 C-424.86526005 138.40763865 -418.74813751 129.8389529 -412.53886331 121.31356529 C-408.15630986 115.29330008 -403.79642112 109.25663699 -399.44755471 103.21200279 C-398.47574814 101.86196292 -397.50261457 100.51287639 -396.52763284 99.16512779 C-387.96041455 87.30573083 -379.88974646 75.11722455 -371.82572854 62.91293053 C-352.20180032 33.25876838 -331.20149425 11.16138205 -295.22196878 3.20028404 C-287.05454531 1.59324431 -279.16899708 0.92600585 -270.8665458 0.91706566 C-269.88068783 0.91212768 -268.89482986 0.9071897 -267.87909741 0.90210209 C-264.58412841 0.8867847 -261.28917888 0.87837867 -257.99418557 0.86996178 C-255.6211777 0.86037119 -253.24817149 0.85036044 -250.87516702 0.839963 C-245.07447016 0.81567913 -239.27377059 0.79591743 -233.47305021 0.77821025 C-226.59435528 0.75700996 -219.71568303 0.73059059 -212.83700703 0.70403878 C-200.40845537 0.65624209 -187.9798918 0.6131185 -175.55131448 0.57259849 C-163.78762883 0.53424179 -152.0239601 0.49283314 -140.26029886 0.44759849 C-138.8282621 0.4421057 -137.39622535 0.43661424 -135.96418858 0.43112413 C-134.90207244 0.42705128 -134.90207244 0.42705128 -133.8184994 0.42289616 C-133.11094832 0.42018343 -132.40339724 0.41747069 -131.67440522 0.41467575 C-130.61410704 0.41060986 -130.61410704 0.41060986 -129.53238869 0.40646183 C-102.31623547 0.30224044 -75.10007818 0.21529007 -47.88380572 0.14884993 C-44.31079648 0.14012405 -40.73778757 0.13127329 -37.16477884 0.12234215 C-36.45695125 0.1205763 -35.74912367 0.11881045 -35.01984676 0.1169911 C-23.3465228 0.08752205 -11.67326978 0.0458684 0 0 Z " fill="#131414" transform="translate(675.9094687774777,566.9247159585357)"/>
<path d="M0 0 C2.12356428 0.01005642 4.24713417 0.01897931 6.37070751 0.02689648 C11.06419674 0.04535281 15.75762579 0.0689162 20.45107651 0.09536362 C28.52724389 0.13774555 36.60334115 0.15047256 44.67959595 0.15811157 C46.13581008 0.15956644 47.59202421 0.1610229 49.04823834 0.16248089 C51.28478071 0.16469183 53.52132309 0.16687897 55.75786555 0.16899169 C64.43577781 0.17744298 73.11367798 0.19213753 81.7915802 0.20759583 C83.01384583 0.20976096 83.01384583 0.20976096 84.26080369 0.21196984 C108.13454002 0.25459724 132.00825183 0.30977195 155.88195515 0.36779499 C159.5899231 0.37675863 163.29789118 0.38566807 167.00585938 0.39453125 C167.9269097 0.39673493 168.84796003 0.39893862 169.79692098 0.40120908 C184.80525986 0.4368037 199.81359847 0.46156653 214.82196424 0.4824271 C230.35001536 0.50424021 245.87801319 0.5373031 261.40601891 0.58078164 C270.92532057 0.60709604 280.44455631 0.62493918 289.96389248 0.63142612 C296.47288382 0.63670949 302.98179133 0.65302408 309.49073759 0.67774574 C313.23021365 0.69163617 316.96954009 0.70097831 320.7090435 0.69708824 C366.2438156 0.65944717 407.60324285 12.17853181 446.11645508 37.13208008 C447.1090332 37.7740332 448.10161133 38.41598633 449.12426758 39.07739258 C452.1430873 41.0657885 455.13347639 43.09031454 458.11645508 45.13208008 C458.71538574 45.54184082 459.31431641 45.95160156 459.93139648 46.3737793 C463.98595374 49.14990037 468.03339627 51.93625605 472.07836914 54.72631836 C501.68449556 75.14702703 531.47730915 95.29525192 561.26977539 115.44262695 C569.45230732 120.97622056 577.63314282 126.51229774 585.81054688 132.0534668 C588.33889475 133.76671336 590.86772197 135.47924865 593.39697266 137.19116211 C599.5363445 141.34721288 605.67211772 145.50835449 611.79846191 149.68359375 C614.83333985 151.75112763 617.87040171 153.81544026 620.90771484 155.87939453 C622.34931828 156.86016928 623.78995663 157.8423645 625.22949219 158.82617188 C629.83112221 161.97057354 634.45876215 165.0713612 639.11645508 168.13208008 C639.74116699 168.54723877 640.36587891 168.96239746 641.00952148 169.39013672 C656.30014986 179.46253477 671.2924965 182.73074732 689.30395508 184.75708008 C691.05546746 184.96634622 692.80676912 185.17738323 694.55786133 185.39013672 C697.94574278 185.80100644 701.3341904 186.20634382 704.72338867 186.60620117 C713.2126283 187.61414534 721.66339849 188.8607967 730.11645508 190.13208008 C731.5270719 190.34173923 732.93771898 190.55119492 734.34838867 190.76049805 C751.71637932 193.34164204 769.0288354 195.99194962 786.24731445 199.44799805 C793.83239256 200.94774168 801.41312227 202.03231766 809.08520508 202.97314453 C843.53755816 207.24728649 876.42127525 213.56823348 908.11645508 228.13208008 C905.5669645 231.26179954 903.08626052 231.88562684 899.24145508 232.88208008 C888.25058548 236.09592811 877.12097376 241.35176444 870.17895508 250.75708008 C867.3244589 259.82430324 868.78454176 268.81862878 873.11645508 277.13208008 C876.47619858 282.68104834 880.23911242 287.93635283 884.11645508 293.13208008 C884.71586914 293.94032227 885.3152832 294.74856445 885.93286133 295.58129883 C896.43413819 308.55656072 912.66206606 317.75269123 929.11645508 320.13208008 C933.37694025 320.40351636 937.6424592 320.56346134 941.91162109 320.57861328 C947.7382255 320.69550237 952.26198381 321.78910958 957.11645508 325.13208008 C961.6802086 331.0207943 961.51327903 337.84250643 961.92895508 345.00708008 C962.04400391 346.47854492 962.04400391 346.47854492 962.16137695 347.97973633 C962.61572175 356.09225428 962.61572175 356.09225428 960.25317383 359.76489258 C958.11645508 362.13208008 958.11645508 362.13208008 956.11645508 363.13208008 C953.02215508 363.27091173 949.94851235 363.34953976 946.85253906 363.38500977 C945.41075035 363.40708748 945.41075035 363.40708748 943.93983459 363.42961121 C940.747456 363.47665936 937.5550473 363.51595686 934.36254883 363.55395508 C932.72726573 363.57474499 932.72726573 363.57474499 931.05894661 363.5959549 C925.28446778 363.66928879 919.50995496 363.736828 913.73535156 363.79956055 C907.77903971 363.86532185 901.82315672 363.949953 895.86715603 364.03913498 C891.28176052 364.10441443 886.69628323 364.15580471 882.1106739 364.20346832 C879.91587913 364.22865182 877.72113697 364.25898381 875.52648735 364.29463959 C872.44633185 364.34333683 869.36656398 364.37233338 866.28613281 364.39672852 C865.38655853 364.41529404 864.48698425 364.43385956 863.56015015 364.45298767 C856.8482328 364.47542918 850.3526115 363.55797184 844.86010742 359.44067383 C840.68400374 354.34260778 838.10252142 349.2633733 835.74145508 343.13208008 C830.18914929 329.52001417 823.8082363 317.27970827 814.11645508 306.13208008 C813.63950195 305.52364258 813.16254883 304.91520508 812.67114258 304.28833008 C796.22194978 283.60934484 768.21191412 273.0255765 742.78344727 269.50708008 C724.84619887 267.67275161 705.62538102 267.62867562 688.11645508 272.13208008 C686.8712207 272.41051758 685.62598633 272.68895508 684.34301758 272.97583008 C665.42958392 277.49945545 649.74177398 286.3924155 635.11645508 299.13208008 C634.50286133 299.6605957 633.88926758 300.18911133 633.25708008 300.73364258 C621.10342335 312.01918097 613.17362831 327.27706096 606.24926758 342.10864258 C602.35704302 350.38229007 598.93185442 356.03495787 590.49145508 359.94458008 C585.98763371 361.52925797 581.95513165 362.25560888 577.18828011 362.27074528 C576.21599217 362.27621972 575.24370423 362.28169417 574.24195302 362.2873345 C573.18122259 362.28831261 572.12049217 362.28929072 571.02761841 362.29029846 C569.32757544 362.29770543 569.32757544 362.29770543 567.59318817 362.30526203 C563.7847018 362.32065123 559.97623234 362.32900288 556.16772461 362.33740234 C553.43852367 362.34643686 550.70932889 362.35695121 547.98013306 362.36740112 C541.31751171 362.39202269 534.65488473 362.41142673 527.99224187 362.42915387 C520.18312045 362.45015948 512.37402023 362.47660872 504.5649166 362.50332534 C490.56599378 362.55105842 476.56706069 362.59426433 462.56811523 362.63476562 C449.10651711 362.6737197 435.64493014 362.71513418 422.18334961 362.75976562 C421.36147967 362.7624899 420.53960972 362.76521417 419.69283463 362.76802099 C416.38512814 362.7789919 413.07742168 362.78997096 409.76971526 362.80096314 C395.2463988 362.84916512 380.72307571 362.89532386 366.19975156 362.94113955 C363.89322904 362.94842642 361.58670664 362.95575106 359.28018427 362.96308255 C355.53250939 362.97497806 351.78483408 362.98673023 348.03715841 362.99837419 C346.56530872 363.00295794 345.09345913 363.00757541 343.62160964 363.01222704 C335.82056475 363.03680524 328.01953676 363.0582908 320.21846199 363.07053471 C317.50202534 363.07504531 314.78558904 363.07973568 312.06915283 363.08450317 C311.40611713 363.08560609 310.74308143 363.08670901 310.05995373 363.08784535 C301.35412474 363.10349993 292.64949973 363.15664536 283.94418395 363.24502116 C278.80124711 363.29519116 273.65826387 363.33056805 268.5151937 363.363922 C266.12377759 363.38342444 263.73240724 363.41005725 261.34115815 363.44439614 C258.07624864 363.49085864 254.81202281 363.51273599 251.54684448 363.52915955 C250.12730378 363.55925033 250.12730378 363.55925033 248.67908549 363.58994901 C241.77411413 363.58774967 236.50269674 362.13824079 231.26686954 357.49009705 C227.13025129 351.0467839 227.37774186 344.39206526 227.39355469 336.94848633 C227.37853255 335.52185795 227.36139518 334.09525053 227.34231567 332.66867065 C227.29724785 328.81328088 227.28312004 324.95835732 227.27583003 321.10273361 C227.26401793 317.05714482 227.22723799 313.01176947 227.19422913 308.96630859 C227.14279282 302.17424543 227.11153777 295.38231367 227.09228516 288.59008789 C227.06981273 280.75082362 227.01524021 272.91227995 226.94347566 265.07332325 C226.87504134 257.51500192 226.82958438 249.9567067 226.7944355 242.39816284 C226.77910508 239.18933925 226.75577844 235.98072336 226.72590446 232.77200317 C226.69171755 228.98964155 226.67772892 225.20771591 226.67895889 221.42520523 C226.67623447 220.04172784 226.66672298 218.65824357 226.64971733 217.27486801 C226.54413081 208.23609862 226.84733191 201.51658496 233.42895508 194.75708008 C240.06186705 190.74648214 246.67656513 190.84200492 254.21711731 190.86465454 C255.32676887 190.86012343 256.43642043 190.85559232 257.57969779 190.8509239 C261.29357147 190.8382756 265.00729858 190.83990057 268.72119141 190.84155273 C271.38577315 190.83556778 274.05034346 190.82881876 276.71492004 190.82119751 C283.19908437 190.80461021 289.68321233 190.799089 296.16739611 190.79797275 C301.43984146 190.79702124 306.71227485 190.79290578 311.98471642 190.7865715 C326.94451655 190.76896559 341.90428802 190.75973166 356.86409859 190.76123245 C357.66997633 190.76131236 358.47585407 190.76139228 359.30615234 190.76147461 C360.51645075 190.76159725 360.51645075 190.76159725 361.75119963 190.76172237 C374.82583149 190.76253517 387.90034812 190.74339729 400.97494666 190.71519788 C414.4110722 190.68644817 427.84714159 190.67265872 441.28329867 190.67438543 C448.82218875 190.67504859 456.36095801 190.66958866 463.89982033 190.64802933 C470.3186728 190.62979006 476.73734969 190.62549265 483.1562169 190.63904817 C486.4284514 190.64556403 489.70028053 190.64355823 492.97249603 190.62834167 C496.52691058 190.61288545 500.08044604 190.62220118 503.63484192 190.63760376 C504.6592766 190.62731663 505.68371129 190.61702951 506.73918945 190.60643065 C514.49135817 190.68046551 521.5012663 192.19614261 527.63208008 197.17504883 C528.20442383 197.88274414 528.77676758 198.59043945 529.36645508 199.31958008 C530.0084082 200.10075195 530.65036133 200.88192383 531.31176758 201.68676758 C533.0578671 204.05269464 534.66208916 206.46505742 536.24145508 208.94458008 C539.38773782 213.85689618 542.5159328 216.26523932 548.11645508 218.13208008 C557.18091158 218.95719315 564.59056349 218.5714434 572.11645508 213.13208008 C575.91145898 209.33707618 578.69291953 204.87890402 581.58911133 200.37817383 C589.5189077 188.71670857 601.27827862 184.52959849 614.11645508 180.13208008 C613.48739258 179.78016602 612.85833008 179.42825195 612.21020508 179.06567383 C600.45294097 172.2839989 593.22977658 163.7573025 585.11645508 153.13208008 C583.58768853 151.14293211 582.04704501 149.16282213 580.49145508 147.19458008 C579.85981445 146.38118164 579.22817383 145.5677832 578.57739258 144.72973633 C572.10480426 137.89755977 564.47343142 133.47321931 556.17895508 129.19458008 C542.77814918 122.10040297 529.93284029 114.22463009 517.11645508 106.13208008 C516.02026855 105.44114258 514.92408203 104.75020508 513.79467773 104.03833008 C501.7409841 96.42509715 489.79946342 88.68808299 478.11352539 80.52124023 C474.29794018 77.86712289 470.45496123 75.25288231 466.61645508 72.63208008 C461.4056843 69.07108168 456.20005884 65.50304747 451.00683594 61.91650391 C448.39765024 60.11691927 445.78347571 58.32471204 443.16723633 56.53540039 C441.7493566 55.56516555 440.33277169 54.59303676 438.91723633 53.61938477 C422.92477078 42.64348866 407.49623167 34.40343676 389.11645508 28.13208008 C388.3563916 27.86556641 387.59632813 27.59905273 386.81323242 27.32446289 C382.0801951 25.69196355 377.42299026 24.4362099 372.49145508 23.50708008 C371.26168945 23.26731445 370.03192383 23.02754883 368.76489258 22.78051758 C353.94252866 20.48305221 338.79698074 21.00158897 323.85083008 21.04614258 C321.89293052 21.04935882 319.9350309 21.05256585 317.97713065 21.05533135 C308.8863039 21.06837869 299.79553535 21.09563705 290.70474625 21.12414742 C287.11789479 21.13514049 283.53104084 21.1451746 279.94418669 21.15524507 C256.26792008 21.22200431 232.59179563 21.31023681 208.91568756 21.41962814 C196.87751978 21.47509206 184.83936131 21.52422941 172.8011353 21.5652231 C164.17110196 21.59515043 155.54111791 21.63239141 146.91113734 21.67487013 C141.8201075 21.69973765 136.72911156 21.72163762 131.63803864 21.73542404 C85.57022226 21.86541775 38.88730327 23.31624177 -2.88354492 45.13208008 C-0.12133419 44.04172603 2.58634858 42.91538443 5.28442383 41.67114258 C9.85024269 39.70854404 14.60087807 38.63004989 19.42895508 37.50708008 C20.31518555 37.29051758 21.20141602 37.07395508 22.11450195 36.85083008 C32.59661296 34.37365724 42.8066807 33.93722196 53.55395508 33.94458008 C54.78227051 33.94538574 56.01058594 33.94619141 57.27612305 33.94702148 C69.01570023 34.02529556 80.58614277 34.7173661 92.08129883 37.17895508 C96.7822953 38.13693125 101.26173845 38.514975 106.05395508 38.50708008 C106.92020508 38.50836914 107.78645508 38.5096582 108.67895508 38.51098633 C117.73102213 38.37551322 126.64368086 37.2354579 135.61645508 36.13208008 C173.71851396 31.47392651 173.71851396 31.47392651 189.49145508 39.94458008 C199.59182114 48.36155179 202.49806031 58.3825959 204.11645508 71.13208008 C204.39688679 74.99215966 204.44911934 78.8252142 204.42895508 82.69458008 C204.42694092 83.79680908 204.42492676 84.89903809 204.42285156 86.03466797 C204.30624045 96.16726571 203.43845909 106.19061422 202.46694946 116.26889038 C201.19203126 129.52236529 200.67558348 142.71308444 200.58349609 156.02636719 C200.56325549 157.42358432 200.54299299 158.82080113 200.52270508 160.21801758 C200.51207031 162.04405518 200.51207031 162.04405518 200.5012207 163.90698242 C200.0798981 167.43849989 199.23111949 169.30216153 197.11645508 172.13208008 C192.60394302 175.37183232 188.77361635 176.25760321 183.29825211 176.25512791 C182.32538734 176.25711896 181.35252257 176.25911 180.35017705 176.26116139 C179.28403574 176.25824855 178.21789443 176.2553357 177.1194458 176.25233459 C175.9848841 176.25318902 174.85032239 176.25404344 173.68138003 176.25492376 C169.86577719 176.25657567 166.05021796 176.25106186 162.23461914 176.24560547 C159.50499951 176.24476718 156.77538075 176.24543743 154.04576111 176.24604797 C148.16192419 176.24657253 142.27809835 176.24343281 136.39426422 176.23781013 C127.88720968 176.22968596 119.38016051 176.22707897 110.87310252 176.22582214 C97.07124174 176.22363307 83.26938687 176.2169769 69.4675293 176.20751953 C56.05965199 176.19834168 42.65177629 176.19126267 29.24389648 176.18701172 C28.00437616 176.18661763 28.00437616 176.18661763 26.73981503 176.18621559 C22.59430984 176.18491056 18.44880464 176.18364685 14.30329943 176.18240368 C-20.09231961 176.17203558 -54.48793163 176.15442118 -88.88354492 176.13208008 C-88.76473012 174.3906242 -88.6344775 172.64994661 -88.49951172 170.90966797 C-88.42822556 169.94025772 -88.35693939 168.97084747 -88.28349304 167.97206116 C-87.6727528 163.63527183 -85.88173246 160.30970166 -83.69604492 156.56958008 C-83.28821777 155.83199463 -82.88039063 155.09440918 -82.46020508 154.33447266 C-80.35928255 150.56682931 -78.12037913 146.92953805 -75.75854492 143.31958008 C-72.94376759 138.76378243 -71.37202572 133.99636082 -69.69604492 128.94458008 C-63.8701005 111.50467398 -55.91882889 94.88239331 -44.88354492 80.13208008 C-44.15651367 79.15239258 -43.42948242 78.17270508 -42.68041992 77.16333008 C-34.34353674 66.4873214 -24.63531385 57.91016727 -12.88354492 51.13208008 C-20.35935584 54.43868875 -26.46680202 59.10992037 -32.88354492 64.13208008 C-34.20805664 65.16268555 -34.20805664 65.16268555 -35.55932617 66.21411133 C-43.31208826 72.32709792 -50.78436261 78.53715073 -57.16088867 86.10473633 C-58.28831643 87.43157307 -59.44669809 88.73286041 -60.63745117 90.00317383 C-79.62665459 110.3402539 -96.12435842 137.73507712 -104.88354492 164.13208008 C-105.12588867 164.81141602 -105.36823242 165.49075195 -105.61791992 166.19067383 C-107.44051896 171.72004524 -107.60300873 176.7938227 -105.88354492 182.38208008 C-102.59060614 186.90987091 -98.39938724 188.66732704 -92.96588802 189.67106056 C-87.74189028 190.37807558 -82.50007436 190.27528264 -77.2379303 190.27011108 C-76.06969788 190.27293236 -74.90146545 190.27575364 -73.69783205 190.27866042 C-70.46823407 190.2855363 -67.23866699 190.28803095 -64.00906289 190.28871155 C-60.5209229 190.29055751 -57.0327952 190.2981678 -53.54466248 190.30519104 C-47.50375078 190.31669777 -41.46284185 190.32495187 -35.42192268 190.33131027 C-25.87114253 190.34165344 -16.32039694 190.36222061 -6.76963806 190.38442993 C-3.49974548 190.3919089 -0.22985276 190.39932272 3.04004002 190.4067173 C3.85713514 190.40856787 4.67423026 190.41041843 5.51608584 190.41232508 C14.80987419 190.4332374 24.10366633 190.45207362 33.39746094 190.4699707 C34.24671977 190.47160889 35.0959786 190.47324707 35.97097255 190.47493489 C49.73881863 190.50123009 63.50666738 190.5198697 77.27452796 190.53656261 C91.41805493 190.55398772 105.56152932 190.58283509 119.70501429 190.62145197 C128.42465885 190.6448346 137.14421771 190.65884498 145.86389387 190.66077961 C151.83916934 190.66289019 157.81435955 190.67582943 163.78959673 190.69725893 C167.2356647 190.70927579 170.68156341 190.71644739 174.12765121 190.71054649 C177.86657196 190.7066564 181.6049924 190.72109246 185.34385681 190.74008179 C186.42859045 190.73455209 187.5133241 190.7290224 188.63092846 190.72332513 C195.48519964 190.78344312 201.69552111 191.27589233 207.17504883 195.85083008 C207.63008789 196.43864258 208.08512695 197.02645508 208.55395508 197.63208008 C209.02704102 198.21989258 209.50012695 198.80770508 209.98754883 199.41333008 C212.25781512 202.86979086 212.23576385 205.89387135 212.21893311 209.9058075 C212.21487709 211.71210884 212.21487709 211.71210884 212.21073914 213.55490112 C212.20254077 214.89141918 212.19422063 216.2279365 212.18579102 217.56445312 C212.18055807 218.97061524 212.17573098 220.37677892 212.17127991 221.78294373 C212.15762431 225.60553159 212.1371749 229.42805338 212.11471462 233.25059867 C212.10085096 235.64019925 212.08821449 238.02980325 212.07596588 240.41941261 C212.03734478 247.89989416 211.9947249 255.38033644 211.9461906 262.86076039 C211.89022512 271.4879586 211.84717375 280.11509131 211.81550956 288.74241227 C211.79025655 295.41523004 211.753632 302.08792541 211.70842385 308.76063758 C211.68167844 312.74367609 211.65965297 316.72660447 211.64940643 320.70972252 C211.6394299 324.46007899 211.61527409 328.21008521 211.58047295 331.96029091 C211.56521536 333.98401569 211.56449483 336.00783393 211.56428528 338.03161621 C211.4000006 352.34497066 211.4000006 352.34497066 206.80643845 357.6430006 C201.21755493 362.71705431 195.24191245 363.42985322 187.9833374 363.40623474 C187.1808067 363.41147142 186.37827599 363.4167081 185.55142617 363.42210346 C182.87090315 363.43706661 180.19057164 363.4378078 177.51000977 363.43847656 C175.58448465 363.44610055 173.65896258 363.45452847 171.73344421 363.46369934 C166.50808221 363.48562823 161.28277873 363.49444116 156.05737591 363.49952579 C152.79048407 363.50317142 149.52360751 363.50941259 146.2567215 363.51652718 C134.85302559 363.54101662 123.44937515 363.55407237 112.0456543 363.55761719 C101.42671421 363.56125148 90.80806332 363.59114064 80.18921161 363.63302177 C71.06373442 363.66774737 61.93835298 363.68316603 52.81281018 363.68386322 C47.36640605 363.68465529 41.92029656 363.69336198 36.47396088 363.72186089 C31.34875873 363.74808005 26.22409471 363.75022508 21.09885597 363.73420525 C19.22279751 363.7323938 17.34670784 363.73905387 15.47071648 363.75502396 C4.09706978 363.84590718 -4.88578187 363.69241862 -13.66870117 355.55004883 C-16.99644652 350.97932275 -19.07339584 345.59795938 -21.32104492 340.44458008 C-26.99974933 327.5561083 -33.11691649 316.16406736 -41.88354492 305.13208008 C-42.43655273 304.41149414 -42.98956055 303.6909082 -43.55932617 302.94848633 C-60.54715625 281.99823434 -90.33550988 270.31068842 -116.44555664 267.40454102 C-123.35538971 266.85693601 -130.26704937 266.76860983 -137.19604492 266.75708008 C-138.25764832 266.75381714 -138.25764832 266.75381714 -139.34069824 266.75048828 C-147.38902041 266.75329731 -155.05444694 267.15336651 -162.88354492 269.13208008 C-164.10299805 269.40407227 -165.32245117 269.67606445 -166.57885742 269.95629883 C-195.92864404 277.34388749 -225.36771179 297.01395538 -242.00854492 322.63208008 C-245.07747658 327.98783339 -247.18758428 333.7373112 -249.26098633 339.53637695 C-251.93387761 346.85435886 -255.17275705 353.77006796 -261.88354492 358.13208008 C-265.30111493 359.70509118 -268.0299195 360.39056443 -271.78369141 360.45092773 C-272.73336288 360.47079742 -273.68303436 360.49066711 -274.66148376 360.51113892 C-276.19259544 360.52846573 -276.19259544 360.52846573 -277.75463867 360.54614258 C-278.82738541 360.56550873 -279.90013214 360.58487488 -281.00538635 360.60482788 C-284.44385822 360.66447803 -287.88237056 360.71075172 -291.32104492 360.75708008 C-293.56910608 360.79531186 -295.8171534 360.83436652 -298.06518555 360.87426758 C-303.59489798 360.96923154 -309.12449589 361.03213017 -314.65472412 361.08776855 C-317.85072117 361.13162961 -321.04436275 361.21015425 -324.23950195 361.29516602 C-326.21589244 361.33244384 -328.19229187 361.36925128 -330.16870117 361.40551758 C-331.06519882 361.43763336 -331.96169647 361.46974915 -332.88536072 361.50283813 C-338.41142107 361.57492543 -341.51862964 360.85903651 -345.88354492 357.13208008 C-350.37610291 351.42531723 -351.03372737 346.75239913 -351.13354492 339.63208008 C-351.15932617 338.52864258 -351.18510742 337.42520508 -351.21166992 336.28833008 C-350.83798017 332.69379059 -350.11149244 330.96060475 -347.88354492 328.13208008 C-344.05521273 325.18566734 -340.4097513 324.48101192 -335.69604492 323.69458008 C-324.19919014 321.55296803 -315.62779739 318.30324674 -307.88354492 309.13208008 C-297.84802541 293.82802578 -296.71569406 276.04607816 -297.88354492 258.13208008 C-298.53833225 255.03628412 -299.42129287 253.0043609 -300.88354492 250.13208008 C-301.37854492 249.10083008 -301.87354492 248.06958008 -302.38354492 247.00708008 C-309.33811464 239.0093249 -319.40704644 236.93877338 -329.44604492 235.31958008 C-331.76020026 234.91927314 -334.0740221 234.51703181 -336.38745117 234.11254883 C-337.90060913 233.86347778 -337.90060913 233.86347778 -339.44433594 233.609375 C-341.88354492 233.13208008 -341.88354492 233.13208008 -343.88354492 232.13208008 C-343.7313715 222.8495014 -339.99268966 216.52790933 -333.69995117 209.79614258 C-321.64003981 198.55137254 -308.0600067 197.07171147 -292.13354492 196.69458008 C-261.02863763 195.93608237 -232.27393109 188.76086926 -204.88354492 174.13208008 C-203.30959961 173.30063477 -203.30959961 173.30063477 -201.70385742 172.45239258 C-169.69364754 154.70667941 -147.31225989 124.74170265 -130.10888672 93.23657227 C-125.83755814 85.42753097 -121.3133014 78.20627709 -115.88354492 71.13208008 C-110.18141414 63.52923903 -105.11406153 55.88951549 -100.50854492 47.56958008 C-95.65008779 38.88963169 -90.02393322 32.01604559 -82.88354492 25.13208008 C-82.13588867 24.37668945 -81.38823242 23.62129883 -80.61791992 22.84301758 C-71.80749413 14.39153506 -60.52321304 8.59526145 -48.88354492 5.13208008 C-47.96444336 4.85750977 -47.0453418 4.58293945 -46.09838867 4.30004883 C-30.85531891 0.13538778 -15.66984544 -0.1335383 0 0 Z " fill="#FEFEFE" transform="translate(424.883544921875,583.867919921875)"/>
<path d="M0 0 C1.90503266 0.01413631 3.81007581 0.02691373 5.71512604 0.03844261 C10.77571551 0.07291562 15.8359351 0.12608686 20.89630508 0.18391323 C25.79757207 0.23759285 30.69894929 0.27648857 35.6003418 0.31671143 C43.99654397 0.38801949 52.39262196 0.46885696 60.78869629 0.55380249 C119.54785065 1.14281079 178.30547173 1.32942512 237.06730181 1.41361241 C244.87282131 1.42482447 252.67833899 1.43692358 260.4838562 1.44962311 C261.59154096 1.45142516 262.69922572 1.45322721 263.84047669 1.45508386 C266.08352478 1.45873433 268.32657288 1.46238488 270.56962097 1.46603552 C309.82944332 1.52958995 349.08926004 1.58726065 388.34911948 1.62176768 C407.87635232 1.63920299 427.40354706 1.66799745 446.93074942 1.70665705 C458.84723761 1.72984507 470.76366405 1.74403208 482.68017501 1.74598469 C490.77744418 1.74809815 498.87465072 1.76106088 506.9718917 1.78246401 C511.62109878 1.79442071 516.27018151 1.80169113 520.91940308 1.79575157 C583.63811845 1.72620713 583.63811845 1.72620713 607.19335938 25.17822266 C614.78367692 33.24954222 625.94335938 48.86126855 625.94335938 60.21728516 C390.65335938 60.21728516 155.36335937 60.21728516 -87.05664062 60.21728516 C-83.5390898 55.99622417 -81.01791859 53.15884882 -76.86914062 49.90478516 C-67.85248253 42.63799063 -60.61496104 36.47407532 -55.05664062 26.21728516 C-47.99672619 13.88826385 -39.79056389 5.59577673 -25.98596191 1.62539673 C-17.37622478 -0.46315305 -8.79816003 -0.11832862 0 0 Z " fill="#FEFEFE" transform="translate(444.056640625,1018.78271484375)"/>
<path d="M0 0 C1.22831543 0.00080566 2.45663086 0.00161133 3.72216797 0.00244141 C15.46174515 0.08071549 27.03218769 0.77278603 38.52734375 3.234375 C43.22834022 4.19235117 47.70778338 4.57039492 52.5 4.5625 C53.36625 4.56378906 54.2325 4.56507813 55.125 4.56640625 C64.17706705 4.43093314 73.08972578 3.29087783 82.0625 2.1875 C120.16455888 -2.47065356 120.16455888 -2.47065356 135.9375 6 C146.03786606 14.41697172 148.94410523 24.43801582 150.5625 37.1875 C150.84293172 41.04757959 150.89516426 44.88063412 150.875 48.75 C150.87298584 49.852229 150.87097168 50.95445801 150.86889648 52.09008789 C150.75228537 62.22268563 149.88450401 72.24603414 148.91299438 82.3243103 C147.63807618 95.57778521 147.1216284 108.76850436 147.02954102 122.08178711 C147.00930041 123.47900424 146.98903791 124.87622105 146.96875 126.2734375 C146.95811523 128.0994751 146.95811523 128.0994751 146.94726562 129.96240234 C146.52594303 133.49391982 145.67716441 135.35758145 143.5625 138.1875 C139.04998794 141.42725225 135.21966127 142.31302313 129.74429703 142.31054783 C128.77143226 142.31253888 127.79856749 142.31452993 126.79622197 142.31658131 C125.73008066 142.31366847 124.66393935 142.31075563 123.56549072 142.30775452 C122.43092902 142.30860894 121.29636732 142.30946337 120.12742496 142.31034368 C116.31182211 142.31199559 112.49626288 142.30648178 108.68066406 142.30102539 C105.95104443 142.3001871 103.22142567 142.30085735 100.49180603 142.3014679 C94.60796911 142.30199245 88.72414327 142.29885273 82.84030914 142.29323006 C74.33325461 142.28510588 65.82620543 142.28249889 57.31914744 142.28124207 C43.51728666 142.27905299 29.71543179 142.27239682 15.91357422 142.26293945 C2.50569692 142.2537616 -10.90217878 142.24668259 -24.31005859 142.24243164 C-25.54957892 142.24203756 -25.54957892 142.24203756 -26.81414005 142.24163551 C-30.95964524 142.24033048 -35.10515044 142.23906677 -39.25065565 142.23782361 C-73.64627469 142.2274555 -108.04188671 142.2098411 -142.4375 142.1875 C-142.3186852 140.44604412 -142.18843258 138.70536654 -142.0534668 136.96508789 C-141.98218063 135.99567764 -141.91089447 135.0262674 -141.83744812 134.02748108 C-141.22670788 129.69069176 -139.43568754 126.36512159 -137.25 122.625 C-136.84217285 121.88741455 -136.4343457 121.1498291 -136.01416016 120.38989258 C-133.91323763 116.62224924 -131.67433421 112.98495798 -129.3125 109.375 C-126.49772267 104.81920235 -124.9259808 100.05178074 -123.25 95 C-117.42405558 77.56009391 -109.47278397 60.93781324 -98.4375 46.1875 C-97.71046875 45.2078125 -96.9834375 44.228125 -96.234375 43.21875 C-88.53803228 33.36300177 -79.64939106 25.02804971 -68.8125 18.72265625 C-66.35637361 17.25910664 -66.35637361 17.25910664 -64.38671875 15.08984375 C-62.30418133 13.05738739 -61.01685112 12.45354986 -58.25 11.6875 C-55.10020144 10.79924512 -52.24475903 9.64823289 -49.2890625 8.26171875 C-44.316964 6.01870539 -39.30586766 4.707114 -34 3.5 C-33.12279297 3.28794922 -32.24558594 3.07589844 -31.34179688 2.85742188 C-20.89957089 0.41808095 -10.69942737 -0.00732536 0 0 Z " fill="#A9DDEB" transform="translate(478.4375,617.8125)"/>
<path d="M0 0 C22.20679917 18.74836323 36.79947963 43.3784591 40.59375 72.4921875 C42.71462677 100.82945771 38.6171041 129.38486987 20.375 152.1875 C18.89447802 153.89211459 17.39563777 155.58107309 15.875 157.25 C15.25109375 157.95511719 14.6271875 158.66023438 13.984375 159.38671875 C-4.34676979 178.98872022 -31.34105897 187.33927472 -57.44580078 188.33886719 C-62.34697558 188.46709865 -67.22489827 188.40217707 -72.125 188.25 C-73.06085938 188.23195313 -73.99671875 188.21390625 -74.9609375 188.1953125 C-101.70651401 186.79631311 -126.49421438 173.1562143 -144.375 153.81640625 C-165.06260514 129.20946966 -171.14181317 97.5853964 -169.125 66.25 C-168.49004396 61.00382341 -167.02085612 56.17698892 -165.125 51.25 C-164.87830566 50.5988623 -164.63161133 49.94772461 -164.37744141 49.27685547 C-156.92465737 29.95634781 -144.66223465 13.67668638 -128.125 1.25 C-127.3103125 0.58613281 -126.495625 -0.07773437 -125.65625 -0.76171875 C-89.44382027 -29.20635877 -36.05376851 -27.67184143 0 0 Z " fill="#525251" transform="translate(352.125,889.75)"/>
<path d="M0 0 C0.94359375 0.50805176 0.94359375 0.50805176 1.90625 1.02636719 C21.82054688 11.76906935 40.61482087 24.32591812 59.3936615 36.90774536 C67.453898 42.30777989 75.53889156 47.66759473 83.65667725 52.98074341 C85.47920024 54.17388315 87.30045246 55.36894381 89.12158203 56.56420898 C94.16485834 59.86995829 99.21767678 63.15487574 104.3359375 66.34375 C118.69665759 75.31418428 118.69665759 75.31418428 123 82 C123.37769531 82.56847656 123.75539063 83.13695312 124.14453125 83.72265625 C125.41443124 87.1032576 125.29558696 90.43910823 125.25 94 C125.24323242 94.75385986 125.23646484 95.50771973 125.22949219 96.28442383 C124.9025113 114.17522131 124.9025113 114.17522131 119 121 C116.6248249 122.18758755 115.16286081 122.13746749 112.51156616 122.15821838 C111.56133575 122.16800878 110.61110535 122.17779917 109.63208008 122.18788624 C108.58093018 122.19364013 107.52978027 122.19939402 106.44677734 122.20532227 C104.78021591 122.22015042 104.78021591 122.22015042 103.07998657 122.23527813 C99.33199248 122.26721844 95.58398692 122.29187621 91.8359375 122.31640625 C89.8408933 122.33198265 87.84584912 122.34756478 85.85080874 122.36362302 C77.11966482 122.43384313 68.38845772 122.49204056 59.6572113 122.54781771 C57.38406187 122.5624417 55.11091494 122.57740524 52.83776855 122.59249496 C31.35975987 122.73505089 9.88167393 122.85488327 -11.59653735 122.96229059 C-17.34687914 122.99120414 -23.09720782 123.0221322 -28.84753418 123.05395508 C-46.3667534 123.15030534 -63.88588008 123.2321032 -81.40532112 123.27481747 C-82.92522308 123.27855903 -84.44512499 123.28232056 -85.96502686 123.28610229 C-86.71280533 123.28796234 -87.46058381 123.28982239 -88.23102224 123.29173881 C-93.49531895 123.30586387 -98.75950783 123.33032339 -104.02374268 123.35916138 C-110.44440244 123.39419299 -116.86491783 123.41517708 -123.28567588 123.41792715 C-126.55995419 123.41969386 -129.83380788 123.42995017 -133.10801315 123.45333099 C-136.66081117 123.4775318 -140.2127708 123.47688823 -143.765625 123.4699707 C-144.79520136 123.48278359 -145.82477772 123.49559649 -146.88555336 123.50879765 C-153.11271805 123.46366586 -157.79643659 122.55088997 -163 119 C-166.74029293 115.13905246 -167.12169726 111.2111941 -167.14717102 105.9969635 C-167.15432632 104.98899216 -167.16148163 103.98102081 -167.16885376 102.94250488 C-167.17154266 101.84265259 -167.17423157 100.74280029 -167.17700195 99.60961914 C-167.18357315 98.44663803 -167.19014435 97.28365692 -167.19691467 96.08543396 C-167.21663322 92.23534075 -167.22830492 88.38528645 -167.23828125 84.53515625 C-167.24235678 83.22115782 -167.2464323 81.90715939 -167.25063133 80.55334282 C-167.26966609 74.31964758 -167.28390332 68.08596408 -167.2922433 61.85224539 C-167.30202374 54.66134249 -167.32837104 47.47074675 -167.36874419 40.27995211 C-167.3989035 34.71720401 -167.41371179 29.15454402 -167.41702431 23.59171575 C-167.41937413 20.27095241 -167.43029927 16.95059303 -167.45348549 13.62989998 C-167.47774548 9.92627368 -167.47693585 6.22345626 -167.4699707 2.51977539 C-167.48278076 1.42194733 -167.49559082 0.32411926 -167.50878906 -0.80697632 C-167.45800772 -8.19906763 -167.45800772 -8.19906763 -165.18110657 -12.18075562 C-162.11838198 -14.73535088 -159.37154465 -14.69286113 -155.5546875 -14.63671875 C-154.80899506 -14.64641693 -154.06330261 -14.65611511 -153.29501343 -14.66610718 C-151.6740177 -14.68483488 -150.0528653 -14.69251218 -148.4317627 -14.69046021 C-144.02952904 -14.68536332 -139.62828961 -14.75944497 -135.2265625 -14.8203125 C-133.84893738 -14.83581902 -133.84893738 -14.83581902 -132.44348145 -14.85163879 C-123.25748114 -14.96952187 -114.09816457 -15.42701624 -104.92590332 -15.92022705 C-67.52748282 -17.90863356 -33.6663992 -18.45177648 0 0 Z " fill="#AADCE8" transform="translate(828,637)"/>
<path d="M0 0 C1.80450887 -0.0039113 1.80450887 -0.0039113 3.64547247 -0.00790161 C4.9833747 -0.00573883 6.32127679 -0.00348237 7.65917873 -0.0011425 C9.08102984 -0.0022966 10.50288065 -0.00388681 11.92473084 -0.00587565 C15.84487736 -0.01006922 19.76499961 -0.00798649 23.68514624 -0.00489222 C27.9253648 -0.00261636 32.16557924 -0.00606227 36.405797 -0.00876904 C44.7688681 -0.01317053 53.13193038 -0.0121143 61.49500181 -0.00927858 C68.37297126 -0.00708666 75.2509376 -0.00712216 82.1289072 -0.00866699 C83.11393461 -0.00888761 84.09896201 -0.00910823 85.11383874 -0.00933553 C87.11870759 -0.00979372 89.12357645 -0.01025605 91.1284453 -0.01072245 C114.52942866 -0.0158078 137.93040532 -0.00999292 161.33138738 -0.00224424 C168.99419164 0.00025483 176.65699588 0.00220021 184.31980038 0.00379753 C185.93874661 0.00413538 185.93874661 0.00413538 187.59039883 0.00448006 C188.66943563 0.00470516 189.74847243 0.00493026 190.86020732 0.00516218 C399.3933949 0.04879073 399.3933949 0.04879073 488.32575482 0.4030323 C495.66487758 0.43175308 503.00399891 0.45325111 510.34315395 0.47172737 C519.02672124 0.49387089 527.71016425 0.52646869 536.39362961 0.57434207 C540.64414532 0.59768253 544.8945494 0.61700647 549.1451273 0.62348938 C552.91705599 0.62945786 556.68864832 0.64909607 560.46045196 0.68012452 C562.42900409 0.69291719 564.39763376 0.69134061 566.3662262 0.68911743 C572.91666702 0.75920776 579.2651892 0.95152326 585.15586758 4.12584114 C589.89112508 9.80815014 590.35983099 14.71715256 590.40586758 21.87584114 C590.43680508 23.05533333 590.43680508 23.05533333 590.46836758 24.25865364 C590.50419162 29.65017247 589.68724573 33.34571443 587.15586758 38.12584114 C583.75394745 41.31514125 580.58981355 42.24978925 575.99425477 42.25579298 C575.14046726 42.25932139 574.28667974 42.26284981 573.40701988 42.26648515 C571.99675532 42.26468849 571.99675532 42.26468849 570.55800056 42.26285553 C569.55681939 42.26550736 568.55563821 42.26815918 567.52411821 42.27089137 C564.13635932 42.27861061 560.74863652 42.27914454 557.36086941 42.27974129 C554.92067387 42.28375416 552.48047899 42.28819209 550.04028493 42.29302084 C544.01603336 42.3037518 537.99179295 42.30974685 531.96753447 42.31372972 C524.75451691 42.31873574 517.54151068 42.32946268 510.32849981 42.34021146 C492.893849 42.3658499 475.45919378 42.38087786 458.02452953 42.39372192 C452.25145806 42.39797547 446.4783869 42.40254116 440.70531583 42.40730524 C410.02311375 42.43256201 379.34091114 42.45461467 348.65870094 42.46703339 C341.54895113 42.46995481 334.43920134 42.47292231 327.32945156 42.4759388 C326.00448107 42.47649516 326.00448107 42.47649516 324.6527435 42.47706276 C296.00163007 42.48922332 267.35057801 42.52017573 238.69949341 42.56186032 C209.25576546 42.60462017 179.81206991 42.63127077 150.36831006 42.6365081 C146.21222784 42.63724858 142.05614568 42.63815927 137.90006351 42.63916588 C137.08208247 42.63935649 136.26410142 42.63954711 135.42133307 42.6397435 C122.24226331 42.64326093 109.06327026 42.66357641 95.8842287 42.68996252 C82.6447368 42.7160706 69.40533381 42.72385007 56.16581985 42.71286123 C48.29516652 42.70687233 40.42481413 42.71485916 32.55420619 42.74269206 C26.68474737 42.76191667 20.8155089 42.75516689 14.94603673 42.7381229 C12.56581431 42.73530418 10.18556406 42.74102409 7.80538668 42.75593583 C4.58015639 42.77491358 1.35645147 42.76333884 -1.86874199 42.7438736 C-3.2684713 42.76314743 -3.2684713 42.76314743 -4.69647798 42.78281063 C-9.03789359 42.72488115 -11.93463466 42.50962072 -15.38312167 39.72661841 C-20.28677766 34.54447241 -20.20852331 29.62969654 -20.21913242 22.81334114 C-20.24362461 21.99672005 -20.2681168 21.18009895 -20.29335117 20.33873177 C-20.32125762 14.50163344 -19.2296312 9.95572396 -15.84413242 5.12584114 C-10.58477179 0.85261063 -6.62044957 0.00103375 0 0 Z " fill="#B2B2B3" transform="translate(432.8441324234009,962.8741588592529)"/>
<path d="M0 0 C2.50012928 2.20643939 4.88012032 4.47528046 7.21875 6.8515625 C7.80527344 7.439375 8.39179688 8.0271875 8.99609375 8.6328125 C18.4071542 18.78622123 19.70520462 29.81321911 19.4921875 43.04296875 C19.0420374 54.47277008 13.93231125 64.95693769 6 73.140625 C-5.0237685 82.69694379 -16.60804248 84.86395055 -30.70849609 84.00488281 C-46.00474114 82.87342912 -58.45611428 77.71682544 -69.03125 66.5390625 C-72.66866561 62.28827877 -74.96639815 58.12418471 -76.78125 52.8515625 C-77.19375 51.6759375 -77.60625 50.5003125 -78.03125 49.2890625 C-80.80597711 36.48458784 -79.12773726 23.45525438 -72.171875 12.26171875 C-70.48289853 9.99554619 -68.69930745 7.92611417 -66.78125 5.8515625 C-66.18570313 5.15417969 -65.59015625 4.45679688 -64.9765625 3.73828125 C-48.24898702 -14.68981539 -19.03509332 -14.7040749 0 0 Z " fill="#7D7D7D" transform="translate(318.78125,937.1484375)"/>
<path d="M0 0 C1.03447266 0.41572266 1.03447266 0.41572266 2.08984375 0.83984375 C14.16686918 6.02937745 24.04714834 18.02853443 29 30 C33.48555059 41.438154 31.0181254 53.79154492 27 65 C21.61665723 76.61995313 13.75825811 83.3952786 1.85205078 87.79345703 C-4.6787222 89.9824922 -10.64334395 90.45717031 -17.5 90.375 C-18.46808594 90.38660156 -19.43617187 90.39820313 -20.43359375 90.41015625 C-33.40058748 90.35794017 -45.13100336 85.78611238 -54.75 77 C-65.05617116 66.13774047 -67.48215679 53.61897304 -67.2734375 39.19140625 C-67.06558358 33.38898912 -66.00732504 28.98841157 -63 24 C-62.51402344 23.10410156 -62.02804687 22.20820312 -61.52734375 21.28515625 C-49.115352 -0.10572315 -23.02595309 -11.18180801 0 0 Z " fill="#757272" transform="translate(1165,931)"/>
<path d="M0 0 C12.55894106 10.80230461 19.58415111 25.72608772 21.4296875 42.08984375 C21.89989049 50.77483185 22.2137875 59.76685006 19.4296875 68.08984375 C18.96949219 69.559375 18.96949219 69.559375 18.5 71.05859375 C12.16093073 89.42003576 -0.35927684 102.332331 -17.50048828 111.07421875 C-31.05953895 117.48852285 -47.84576413 118.92841779 -62.2578125 114.46484375 C-64.04772786 113.7173213 -65.81992021 112.92573468 -67.5703125 112.08984375 C-68.53453125 111.68894531 -69.49875 111.28804687 -70.4921875 110.875 C-85.4241441 104.20204012 -97.83504105 92.09007512 -104.4453125 77.08984375 C-105.18917306 75.10278372 -105.89857249 73.10242952 -106.5703125 71.08984375 C-106.88871094 70.14625 -107.20710938 69.20265625 -107.53515625 68.23046875 C-111.89433024 53.36508279 -110.78557242 34.11233242 -103.71484375 20.15625 C-103.14830078 19.13337891 -103.14830078 19.13337891 -102.5703125 18.08984375 C-101.95736328 16.89681641 -101.95736328 16.89681641 -101.33203125 15.6796875 C-93.97338683 2.26829893 -82.59157069 -5.98664283 -68.41015625 -11.03515625 C-45.65196849 -17.54643968 -18.97318699 -14.766089 0 0 Z M-82.9375 20.7421875 C-92.13037405 33.95969301 -93.98296723 45.3162141 -92.5703125 61.08984375 C-89.79497215 72.6338241 -82.1101036 82.23532718 -72.5703125 89.08984375 C-58.26161263 96.91464878 -40.90868553 99.2070538 -25.00341797 94.60473633 C-13.90929094 90.80968191 -5.05672987 83.72354925 0.6796875 73.40234375 C5.9177842 61.8424062 7.76155038 47.6764931 3.5234375 35.55078125 C-3.59487404 19.53458028 -15.46451301 10.06097879 -31.40625 3.88671875 C-50.47866896 -3.13633805 -70.49387576 5.62348462 -82.9375 20.7421875 Z " fill="#080708" transform="translate(1190.5703125,924.91015625)"/>
<path d="M0 0 C13.67910868 11.0760599 26.66154915 25.77331891 28.625 44.0625 C28.76775161 45.70688874 28.89102741 47.35302783 29 49 C29.07734375 49.97066406 29.1546875 50.94132813 29.234375 51.94140625 C29.92701476 67.62200081 23.16027939 82.72252479 12.6875 94.1875 C10.81969626 96.15595256 8.91667436 98.07794173 7 100 C6.2678125 100.75539063 5.535625 101.51078125 4.78125 102.2890625 C-7.97989336 114.62166 -25.30753461 119.44208908 -42.65234375 119.203125 C-61.12837187 118.08205912 -75.98353342 107.97489021 -88.08203125 94.71875 C-99.4432617 81.05557089 -104.50065867 63.69587457 -103.22314453 46.12304688 C-101.62030326 30.87325728 -95.5067231 15.42471659 -84 5 C-60.26973711 -14.21021281 -25.67057391 -17.92025336 0 0 Z M-57 8 C-57.80566406 8.30550781 -58.61132812 8.61101563 -59.44140625 8.92578125 C-70.63082585 13.74125917 -79.21543601 23.66644023 -84.1796875 34.59765625 C-89.09892694 47.20108695 -88.37098755 60.6450658 -83 73 C-81.27031344 76.2649703 -79.32195674 79.13003887 -77 82 C-76.52175781 82.61359375 -76.04351562 83.2271875 -75.55078125 83.859375 C-68.13227205 92.30563736 -54.97918039 97.85824767 -43.9375 98.828125 C-42.4834375 98.91320312 -42.4834375 98.91320312 -41 99 C-40.35417969 99.03931641 -39.70835937 99.07863281 -39.04296875 99.11914062 C-24.85217216 99.87342621 -13.34653136 97.93554829 -2.21875 88.2890625 C8.02456571 77.72113467 11.60284023 65.23093499 11.40258789 50.87158203 C10.89544248 36.5479568 4.96402004 27.24587877 -5.20703125 17.3671875 C-19.51747612 5.23833492 -39.32209088 0.59643122 -57 8 Z " fill="#080909" transform="translate(327,922)"/>
<path d="M0 0 C1.36965248 0.10040337 2.74351777 0.14868305 4.11677551 0.16253662 C4.95364395 0.17351379 5.79051239 0.18449097 6.65274048 0.19580078 C8.02503311 0.20667725 8.02503311 0.20667725 9.42504883 0.21777344 C10.39120621 0.22939514 11.35736359 0.24101685 12.35279846 0.25299072 C14.45297523 0.27821332 16.55317503 0.30157004 18.65339088 0.32329559 C23.11752131 0.37204884 27.58133337 0.43834185 32.04524517 0.50378799 C40.35921 0.625659 48.67308692 0.74104566 56.98754883 0.82324219 C62.76858315 0.8810698 68.54885484 0.96273107 74.32935143 1.06018829 C76.53202791 1.09286899 78.73485407 1.11670789 80.93772316 1.13152313 C84.02154082 1.15332356 87.1034714 1.20551318 90.18676758 1.26464844 C91.09555664 1.26380249 92.0043457 1.26295654 92.94067383 1.26208496 C99.00860767 1.42184638 101.79272847 2.56963762 106 7 C108.17459003 11.34918006 107.49552562 17.08843889 107.6875 21.875 C107.74744141 23.07253906 107.80738281 24.27007813 107.86914062 25.50390625 C107.91619141 26.65503906 107.96324219 27.80617188 108.01171875 28.9921875 C108.08072388 30.57555908 108.08072388 30.57555908 108.15112305 32.19091797 C107.99370661 35.11698187 107.69495397 36.62633572 106 39 C102.72761917 41.30166891 99.4566386 41.38473819 95.53515625 41.6328125 C94.8863147 41.67460129 94.23747314 41.71639008 93.56896973 41.75944519 C91.40066324 41.89336607 89.23193691 42.01091828 87.0625 42.125 C86.30967743 42.16636078 85.55685486 42.20772156 84.78121948 42.25033569 C72.01817243 42.93484082 59.25347757 43.23343293 46.47286987 43.29754639 C44.56408735 43.3073538 42.65532164 43.32172211 40.74661255 43.34112549 C1.7329597 43.68881077 1.7329597 43.68881077 -10.0390625 33.1796875 C-15.71669121 27.22168206 -18.09787308 21.56687172 -18.375 13.375 C-18.23243771 8.89978382 -17.69003434 5.7103922 -15 2 C-10.38328948 -1.84725876 -5.57609362 -1.85869787 0 0 Z " fill="#B2B2B3" transform="translate(59,959)"/>
<path d="M0 0 C0.93079376 -0.00365067 1.86158752 -0.00730133 2.82058716 -0.01106262 C5.88562477 -0.0191438 8.95012975 -0.00558011 12.01513672 0.0090332 C14.14932251 0.00955201 16.28350878 0.0090335 18.41769409 0.00752258 C22.88465533 0.00761219 27.35143567 0.0180203 31.81835938 0.03613281 C37.54619476 0.05884696 43.27376654 0.05935785 49.0016346 0.05261517 C53.40593818 0.04927564 57.81018156 0.05590453 62.21447372 0.0657444 C64.32680827 0.0695949 66.43914951 0.07074524 68.55148697 0.06915855 C71.50060063 0.0687881 74.4493748 0.08140193 77.3984375 0.09765625 C78.27230103 0.09517883 79.14616455 0.09270142 80.04650879 0.09014893 C81.25338852 0.10077614 81.25338852 0.10077614 82.48464966 0.11161804 C83.18110659 0.11367091 83.87756351 0.11572378 84.5951252 0.11783886 C86.94730504 0.42095967 88.54364315 1.15466537 90.56982422 2.37231445 C93.82721137 7.08203983 93.09512416 12.91727655 92.56982422 18.37231445 C90.8249199 26.0808158 86.82400184 31.60722674 80.56982422 36.37231445 C77.65753851 38.02803019 74.73070752 39.27523812 71.56982422 40.37231445 C70.69269775 40.71259674 69.81557129 41.05287903 68.91186523 41.4034729 C65.15307489 42.49312807 61.69943995 42.66787192 57.82373047 42.6628418 C56.69570511 42.67291763 56.69570511 42.67291763 55.54489136 42.68319702 C53.07396736 42.70210161 50.6033159 42.70609687 48.13232422 42.70825195 C46.40649303 42.7146834 44.68066292 42.72141202 42.95483398 42.72842407 C39.34372428 42.7403767 35.73271011 42.7441068 32.12158203 42.74291992 C27.50131881 42.74271645 22.88166871 42.77005661 18.2615509 42.80446434 C14.69955647 42.82672867 11.13770996 42.83075767 7.57565308 42.82970047 C5.87244548 42.83205566 4.16923375 42.84087464 2.46609497 42.8563652 C0.0822677 42.87602346 -2.30023211 42.87018959 -4.68408203 42.8581543 C-5.38244171 42.86939331 -6.08080139 42.88063232 -6.80032349 42.89221191 C-11.78161794 42.82849919 -14.58190227 41.46864853 -18.43017578 38.37231445 C-23.24131569 32.2343128 -21.86938022 24.65049101 -21.11376953 17.2902832 C-20.28297986 11.81904672 -19.22933736 7.5936051 -15.43017578 3.37231445 C-10.25485421 0.05972854 -5.93875387 -0.05218842 0 0 Z " fill="#A6A5A5" transform="translate(1291.43017578125,962.627685546875)"/>
<path d="M0 0 C14.9646016 7.62467016 21.01367977 21.64634283 27.0625 36.5 C27.37380859 37.24096924 27.68511719 37.98193848 28.00585938 38.74536133 C29.8544519 43.49068976 30.49497734 46.94585068 29 52 C27.03224507 54.09207932 25.73118466 54.83287208 22.94921875 55.46875 C8.13753488 55.67340194 -6.72523952 48.2163011 -17.375 38.3125 C-24.01300769 31.32231505 -29.89263349 21.22725747 -30.0625 11.375 C-29 8 -29 8 -26.1875 5.75 C-21.96099005 3.70237406 -17.43365949 2.71911963 -12.8671875 1.7109375 C-9.98266327 1.06532802 -9.98266327 1.06532802 -7.27734375 -0.08984375 C-4.25956273 -1.2959209 -3.07452563 -1.07250894 0 0 Z " fill="#D1AF62" transform="translate(1344,833)"/>
<path d="M0 0 C3.28363504 2.12309875 5.15735756 4.77174636 6.87890625 8.21484375 C7.11801442 11.25051286 7.06410712 14.29579541 7.06640625 17.33984375 C7.07865234 18.17 7.09089844 19.00015625 7.10351562 19.85546875 C7.12450967 28.78493682 5.40782303 36.04477877 -0.12109375 43.21484375 C-5.91728308 48.72122361 -11.43336317 49.72069691 -19.23046875 49.60546875 C-23.64028879 49.00954712 -25.24857432 47.55317714 -28.12109375 44.21484375 C-29.3268269 40.59764431 -29.32130408 37.24542825 -29.359375 33.4765625 C-29.36744675 32.71817581 -29.37551849 31.95978912 -29.38383484 31.17842102 C-29.39765557 29.57380445 -29.40838671 27.96915873 -29.41625977 26.36450195 C-29.42777856 24.72834627 -29.44822904 23.09222813 -29.4777832 21.45629883 C-29.52056878 19.08779456 -29.53664319 16.7204058 -29.546875 14.3515625 C-29.56438309 13.6263591 -29.58189117 12.9011557 -29.59992981 12.15397644 C-29.57821852 7.02895263 -28.37779162 4.13926202 -25.12109375 0.21484375 C-17.26061062 -4.59769694 -8.10634977 -4.07492717 0 0 Z " fill="#C86A5D" transform="translate(103.12109375,840.78515625)"/>
<path d="M0 0 C1.71230301 0.01089157 1.71230301 0.01089157 3.459198 0.02200317 C4.68840973 0.04165131 5.91762146 0.06129944 7.18408203 0.08154297 C8.45156281 0.09708221 9.71904358 0.11262146 11.02493286 0.12863159 C13.7066465 0.16544933 16.38785127 0.20692559 19.06933594 0.25537109 C22.49439032 0.31598164 25.91910407 0.34930273 29.34457207 0.37542915 C32.6246879 0.40560826 35.9043026 0.4640621 39.18408203 0.51904297 C41.02182693 0.53029709 41.02182693 0.53029709 42.896698 0.54177856 C50.85344303 0.723215 54.65751981 1.53935575 60.31689453 7.19873047 C60.87696382 10.91287418 60.83930459 14.48137047 60.31689453 18.19873047 C57.74338946 21.57645587 56.06973803 22.0722017 51.91918945 22.76977539 C46.18798263 23.40829662 40.44087689 23.39988183 34.68017578 23.43701172 C33.48257126 23.44508347 32.28496674 23.45315521 31.05107117 23.46147156 C28.53056257 23.47524707 26.01003582 23.48599816 23.48950195 23.49389648 C20.91067037 23.50547684 18.33186385 23.5260225 15.75317383 23.55541992 C12.02034275 23.59793833 8.28821838 23.61423774 4.55517578 23.62451172 C3.40302078 23.64201981 2.25086578 23.65952789 1.063797 23.67756653 C-6.91328696 23.65585606 -6.91328696 23.65585606 -10.88549805 21.29711914 C-14.12209202 17.51896822 -14.01713571 14.5177243 -13.96826172 9.67919922 C-13.56446941 6.16675928 -12.29533164 4.52070928 -9.68310547 2.19873047 C-6.38639555 0.1444077 -3.85282906 -0.0389409 0 0 Z " fill="#2F2F2E" transform="translate(698.68310546875,811.80126953125)"/>
<path d="M0 0 C5.83566459 0.40245963 9.37097288 1.12453544 14 5 C20.3110213 14.30875642 21.12237079 26.06908453 20 37 C19.06172149 40.31157121 17.77972512 43.06674934 16 46 C15.608125 46.825 15.21625 47.65 14.8125 48.5 C12.15943829 50.69563727 9.68911389 51.1090702 6.29296875 51.375 C2.64137931 50.7778065 1.19988241 48.64595008 -0.90625 45.76171875 C-5.57331471 38.24441095 -2.97510497 25.71736756 -2.625 17.0625 C-2.59422363 16.17522217 -2.56344727 15.28794434 -2.53173828 14.3737793 C-2.29953928 9.26588307 -1.62423585 4.8528998 0 0 Z " fill="#D0D1D0" transform="translate(974,731)"/>
<path d="M0 0 C0 0.66 0 1.32 0 2 C-0.70125 2.17015625 -1.4025 2.3403125 -2.125 2.515625 C-6.82887401 3.71715804 -11.15898374 4.92067546 -15.4375 7.25 C-19 9 -19 9 -21.22265625 8.609375 C-21.80917969 8.40828125 -22.39570313 8.2071875 -23 8 C-20.23012967 6.68543451 -17.45916513 5.3732713 -14.6875 4.0625 C-13.90181641 3.68931641 -13.11613281 3.31613281 -12.30664062 2.93164062 C-11.54931641 2.57392578 -10.79199219 2.21621094 -10.01171875 1.84765625 C-9.31522217 1.51773682 -8.61872559 1.18781738 -7.90112305 0.84790039 C-3.43370317 -1.14456772 -3.43370317 -1.14456772 0 0 Z " fill="#2A3133" transform="translate(443,621)"/>
<path d="M0 0 C0.66 0.33 1.32 0.66 2 1 C-0.20747392 2.58454292 -2.41594742 4.16766053 -4.625 5.75 C-5.24246094 6.1934375 -5.85992187 6.636875 -6.49609375 7.09375 C-10.28397513 9.80507562 -14.1093764 12.438174 -18 15 C-18 14.01 -18 13.02 -18 12 C-16.56298828 10.66552734 -16.56298828 10.66552734 -14.5703125 9.3359375 C-13.85746094 8.85382812 -13.14460938 8.37171875 -12.41015625 7.875 C-11.65605469 7.38 -10.90195312 6.885 -10.125 6.375 C-9.00544922 5.62089844 -9.00544922 5.62089844 -7.86328125 4.8515625 C-2.46056548 1.23028274 -2.46056548 1.23028274 0 0 Z " fill="#293032" transform="translate(411,634)"/>
<path d="M0 0 C-1.61010527 4.07376031 -4.53822271 6.76507069 -7.625 9.75 C-8.140625 10.25660156 -8.65625 10.76320313 -9.1875 11.28515625 C-10.45383339 12.52803902 -11.7263144 13.76465276 -13 15 C-13.66 14.67 -14.32 14.34 -15 14 C-13.58474822 12.41540185 -12.1677358 10.83237609 -10.75 9.25 C-9.96109375 8.36828125 -9.1721875 7.4865625 -8.359375 6.578125 C-2.33939394 0 -2.33939394 0 0 0 Z " fill="#6C6D6D" transform="translate(336,592)"/>
<path d="M0 0 C-1.59092052 4.13639336 -4.60474918 7.23213248 -8 10 C-8.66 10 -9.32 10 -10 10 C-8.50006099 6.10015857 -4.53875449 0 0 0 Z " fill="#7A7B7B" transform="translate(82,777)"/>
</svg>
