<?xml version="1.0" encoding="UTF-8"?>
<svg version="1.1" xmlns="http://www.w3.org/2000/svg" width="2245" height="1587">
<path d="M0 0 C182.82 0 365.64 0 554 0 C554.33 12.87 554.66 25.74 555 39 C555.33 39 555.66 39 556 39 C556.33 26.13 556.66 13.26 557 0 C739.82 0 922.64 0 1111 0 C1111.33 12.87 1111.66 25.74 1112 39 C1112.33 39 1112.66 39 1113 39 C1113.33 26.13 1113.66 13.26 1114 0 C1296.82 0 1479.64 0 1668 0 C1668.33 12.87 1668.66 25.74 1669 39 C1669.66 39 1670.32 39 1671 39 C1671.33 26.13 1671.66 13.26 1672 0 C1854.49 0 2036.98 0 2225 0 C2225.495 19.305 2225.495 19.305 2226 39 C2226.495 40.98 2226.495 40.98 2227 43 C2226.67 43.33 2226.34 43.66 2226 44 C2225.67 56.87 2225.34 69.74 2225 83 C2042.51 83 1860.02 83 1672 83 C1671.67 70.13 1671.34 57.26 1671 44 C1670.34 44 1669.68 44 1669 44 C1668.67 56.87 1668.34 69.74 1668 83 C1485.18 83 1302.36 83 1114 83 C1113.67 70.13 1113.34 57.26 1113 44 C1112.67 44 1112.34 44 1112 44 C1111.67 56.87 1111.34 69.74 1111 83 C928.18 83 745.36 83 557 83 C556.67 70.13 556.34 57.26 556 44 C555.34 43.67 554.68 43.34 554 43 C554.00523682 44.17618896 554.01047363 45.35237793 554.01586914 46.56420898 C554.03391663 50.91202031 554.04543108 55.2598283 554.05493164 59.60766602 C554.05997244 61.4924373 554.06680498 63.37720465 554.07543945 65.26196289 C554.08751617 67.96501636 554.09323068 70.66801831 554.09765625 73.37109375 C554.10281754 74.21900986 554.10797882 75.06692596 554.11329651 75.9405365 C554.11349195 77.96071068 554.06206211 79.98077934 554 82 C552.12527838 83.87472162 549.41589694 83.12395552 546.92107961 83.13100848 C546.03650359 83.12838146 545.15192758 83.12575445 544.24054623 83.12304783 C543.30572173 83.12420167 542.37089724 83.12535552 541.40774474 83.12654433 C538.2337215 83.12921906 535.05974766 83.12468183 531.88572693 83.12025452 C529.60384915 83.12069004 527.32197142 83.12156461 525.04009396 83.12284368 C518.73727667 83.12509228 512.4344762 83.12106241 506.13166106 83.11606562 C500.04276364 83.11172055 493.95386614 83.1130248 487.86496764 83.11374746 C475.40361769 83.11506351 462.94227302 83.11171185 450.48092461 83.10573006 C438.1367738 83.09981967 425.79262519 83.09596545 413.44847298 83.09487724 C412.68189195 83.0948085 411.91531092 83.09473976 411.12550016 83.09466894 C407.23266428 83.09433062 403.3398284 83.09402923 399.44699252 83.09374207 C371.85048375 83.09163982 344.25397785 83.08489735 316.6574707 83.07543945 C289.84236669 83.06625994 263.02726347 83.05917392 236.2121582 83.05493164 C234.97303611 83.05473435 234.97303611 83.05473435 233.70888125 83.05453308 C225.41328072 83.05321459 217.11768018 83.05193877 208.82207964 83.05069422 C191.92191881 83.04815778 175.02175804 83.04533653 158.12159729 83.04234314 C156.95595016 83.0421372 156.95595016 83.0421372 155.76675461 83.04192711 C103.84450186 83.03272135 51.92225076 83.01685481 0 83 C-0.02505615 81.83952148 -0.0501123 80.67904297 -0.07592773 79.48339844 C-0.17015772 75.17453118 -0.27034035 70.86581927 -0.37231445 66.55712891 C-0.41560433 64.69290808 -0.45728361 62.82864912 -0.49731445 60.96435547 C-0.55516113 58.2834118 -0.61881405 55.602659 -0.68359375 52.921875 C-0.70030624 52.08944275 -0.71701874 51.2570105 -0.73423767 50.39935303 C-0.75418289 49.61884583 -0.77412811 48.83833862 -0.79467773 48.03417969 C-0.81022202 47.35023132 -0.8257663 46.66628296 -0.84178162 45.96160889 C-0.94698301 43.94112349 -0.94698301 43.94112349 -1.57533264 41.81036377 C-1.71547287 41.21294373 -1.8556131 40.61552368 -2 40 C-1.505 39.505 -1.505 39.505 -1 39 C-0.67 26.13 -0.34 13.26 0 0 Z " fill="#5D6B72" transform="translate(2,793)"/>
<path d="M0 0 C182.82 0 365.64 0 554 0 C554 4.29 554 8.58 554 13 C371.18 13 188.36 13 0 13 C0 8.71 0 4.42 0 0 Z " fill="#F8F8F8" transform="translate(559,863)"/>
<path d="M0 0 C182.82 0 365.64 0 554 0 C554 4.29 554 8.58 554 13 C371.18 13 188.36 13 0 13 C0 8.71 0 4.42 0 0 Z " fill="#F8F9F9" transform="translate(559,793)"/>
<path d="M0 0 C182.49 0 364.98 0 553 0 C553 4.29 553 8.58 553 13 C370.51 13 188.02 13 0 13 C0 8.71 0 4.42 0 0 Z " fill="#F8F8F9" transform="translate(1674,863)"/>
<path d="M0 0 C182.49 0 364.98 0 553 0 C553 4.29 553 8.58 553 13 C370.51 13 188.02 13 0 13 C0 8.71 0 4.42 0 0 Z " fill="#F9F9F9" transform="translate(1674,793)"/>
<path d="M0 0 C182.49 0 364.98 0 553 0 C553 2.31 553 4.62 553 7 C370.51 7 188.02 7 0 7 C0 4.69 0 2.38 0 0 Z " fill="#F8F8F9" transform="translate(1117,863)"/>
<path d="M0 0 C182.49 0 364.98 0 553 0 C553 2.31 553 4.62 553 7 C370.51 7 188.02 7 0 7 C0 4.69 0 2.38 0 0 Z " fill="#F8F8F9" transform="translate(2,863)"/>
<path d="M0 0 C182.49 0 364.98 0 553 0 C553 2.31 553 4.62 553 7 C370.51 7 188.02 7 0 7 C0 4.69 0 2.38 0 0 Z " fill="#F9F9F9" transform="translate(1117,799)"/>
<path d="M0 0 C182.49 0 364.98 0 553 0 C553 2.31 553 4.62 553 7 C370.51 7 188.02 7 0 7 C0 4.69 0 2.38 0 0 Z " fill="#F9F9F9" transform="translate(2,799)"/>
<path d="M0 0 C182.82 0 365.64 0 554 0 C554 1.98 554 3.96 554 6 C371.18 6 188.36 6 0 6 C0 4.02 0 2.04 0 0 Z " fill="#4B555C" transform="translate(1116,870)"/>
<path d="M0 0 C182.82 0 365.64 0 554 0 C554 1.98 554 3.96 554 6 C371.18 6 188.36 6 0 6 C0 4.02 0 2.04 0 0 Z " fill="#4B555C" transform="translate(559,870)"/>
<path d="M0 0 C182.82 0 365.64 0 554 0 C554 1.98 554 3.96 554 6 C371.18 6 188.36 6 0 6 C0 4.02 0 2.04 0 0 Z " fill="#4B555C" transform="translate(1116,793)"/>
<path d="M0 0 C182.82 0 365.64 0 554 0 C554 1.98 554 3.96 554 6 C371.18 6 188.36 6 0 6 C0 4.02 0 2.04 0 0 Z " fill="#4B555C" transform="translate(559,793)"/>
<path d="M0 0 C182.82 0 365.64 0 554 0 C554 1.98 554 3.96 554 6 C371.18 6 188.36 6 0 6 C0 4.02 0 2.04 0 0 Z " fill="#4B555C" transform="translate(2,793)"/>
<path d="M0 0 C182.82 0 365.64 0 554 0 C554 1.65 554 3.3 554 5 C552.12527838 6.87472162 549.41589694 6.12395552 546.92107961 6.13100848 C546.03650359 6.12838146 545.15192758 6.12575445 544.24054623 6.12304783 C543.30572173 6.12420167 542.37089724 6.12535552 541.40774474 6.12654433 C538.2337215 6.12921906 535.05974766 6.12468183 531.88572693 6.12025452 C529.60384915 6.12069004 527.32197142 6.12156461 525.04009396 6.12284368 C518.73727667 6.12509228 512.4344762 6.12106241 506.13166106 6.11606562 C500.04276364 6.11172055 493.95386614 6.1130248 487.86496764 6.11374746 C475.40361769 6.11506351 462.94227302 6.11171185 450.48092461 6.10573006 C438.1367738 6.09981967 425.79262519 6.09596545 413.44847298 6.09487724 C412.68189195 6.0948085 411.91531092 6.09473976 411.12550016 6.09466894 C407.23266428 6.09433062 403.3398284 6.09402923 399.44699252 6.09374207 C371.85048375 6.09163982 344.25397785 6.08489735 316.6574707 6.07543945 C289.84236669 6.06625994 263.02726347 6.05917392 236.2121582 6.05493164 C234.97303611 6.05473435 234.97303611 6.05473435 233.70888125 6.05453308 C225.41328072 6.05321459 217.11768018 6.05193877 208.82207964 6.05069422 C191.92191881 6.04815778 175.02175804 6.04533653 158.12159729 6.04234314 C156.95595016 6.0421372 156.95595016 6.0421372 155.76675461 6.04192711 C103.84450186 6.03272135 51.92225076 6.01685481 0 6 C0 4.02 0 2.04 0 0 Z " fill="#4B555C" transform="translate(2,870)"/>
<path d="M0 0 C182.49 0 364.98 0 553 0 C553 1.98 553 3.96 553 6 C370.51 6 188.02 6 0 6 C0 4.02 0 2.04 0 0 Z " fill="#4B555C" transform="translate(1674,870)"/>
<path d="M0 0 C182.49 0 364.98 0 553 0 C553 1.98 553 3.96 553 6 C370.51 6 188.02 6 0 6 C0 4.02 0 2.04 0 0 Z " fill="#4B555C" transform="translate(1674,793)"/>
<path d="M0 0 C0 0.99 0 1.98 0 3 C-11.79073171 3.77806859 -23.22529744 4.1596298 -35 3 C-35 2.01 -35 1.02 -35 0 C-23.22529744 -1.1596298 -11.79073171 -0.77806859 0 0 Z " fill="#FDD73D" transform="translate(575,833)"/>
<path d="M0 0 C0 0.99 0 1.98 0 3 C-11.80088222 3.83375798 -23.20567437 4.0574223 -35 3 C-35 2.01 -35 1.02 -35 0 C-23.20567437 -1.0574223 -11.80088222 -0.83375798 0 0 Z " fill="#FDD73D" transform="translate(1689,833)"/>
<path d="M0 0 C0 0.99 0 1.98 0 3 C-11.80088222 3.83375798 -23.20567437 4.0574223 -35 3 C-35 2.01 -35 1.02 -35 0 C-23.20567437 -1.0574223 -11.80088222 -0.83375798 0 0 Z " fill="#FDD83D" transform="translate(1132,833)"/>
<path d="M0 0 C10.23 0 20.46 0 31 0 C31 0.99 31 1.98 31 3 C20.77 3 10.54 3 0 3 C0 2.01 0 1.02 0 0 Z " fill="#FDD83D" transform="translate(2156,833)"/>
<path d="M0 0 C10.23 0 20.46 0 31 0 C31 0.99 31 1.98 31 3 C20.77 3 10.54 3 0 3 C0 2.01 0 1.02 0 0 Z " fill="#FDD83D" transform="translate(2101,833)"/>
<path d="M0 0 C10.23 0 20.46 0 31 0 C31 0.99 31 1.98 31 3 C20.77 3 10.54 3 0 3 C0 2.01 0 1.02 0 0 Z " fill="#FCD73D" transform="translate(2046,833)"/>
<path d="M0 0 C10.23 0 20.46 0 31 0 C31 0.99 31 1.98 31 3 C20.77 3 10.54 3 0 3 C0 2.01 0 1.02 0 0 Z " fill="#FDD83D" transform="translate(1990,833)"/>
<path d="M0 0 C10.23 0 20.46 0 31 0 C31 0.99 31 1.98 31 3 C20.77 3 10.54 3 0 3 C0 2.01 0 1.02 0 0 Z " fill="#FDD83D" transform="translate(1935,833)"/>
<path d="M0 0 C10.23 0 20.46 0 31 0 C31 0.99 31 1.98 31 3 C20.77 3 10.54 3 0 3 C0 2.01 0 1.02 0 0 Z " fill="#FCD73D" transform="translate(1880,833)"/>
<path d="M0 0 C10.23 0 20.46 0 31 0 C31 0.99 31 1.98 31 3 C20.77 3 10.54 3 0 3 C0 2.01 0 1.02 0 0 Z " fill="#FDD83D" transform="translate(1824,833)"/>
<path d="M0 0 C10.23 0 20.46 0 31 0 C31 0.99 31 1.98 31 3 C20.77 3 10.54 3 0 3 C0 2.01 0 1.02 0 0 Z " fill="#FED83D" transform="translate(1769,833)"/>
<path d="M0 0 C10.23 0 20.46 0 31 0 C31 0.99 31 1.98 31 3 C20.77 3 10.54 3 0 3 C0 2.01 0 1.02 0 0 Z " fill="#FCD73D" transform="translate(1714,833)"/>
<path d="M0 0 C10.23 0 20.46 0 31 0 C31 0.99 31 1.98 31 3 C20.77 3 10.54 3 0 3 C0 2.01 0 1.02 0 0 Z " fill="#FED83D" transform="translate(1599,833)"/>
<path d="M0 0 C10.23 0 20.46 0 31 0 C31 0.99 31 1.98 31 3 C20.77 3 10.54 3 0 3 C0 2.01 0 1.02 0 0 Z " fill="#FDD73D" transform="translate(1544,833)"/>
<path d="M0 0 C10.23 0 20.46 0 31 0 C31 0.99 31 1.98 31 3 C20.77 3 10.54 3 0 3 C0 2.01 0 1.02 0 0 Z " fill="#FDD73D" transform="translate(1488,833)"/>
<path d="M0 0 C10.23 0 20.46 0 31 0 C31 0.99 31 1.98 31 3 C20.77 3 10.54 3 0 3 C0 2.01 0 1.02 0 0 Z " fill="#FED83D" transform="translate(1433,833)"/>
<path d="M0 0 C10.23 0 20.46 0 31 0 C31 0.99 31 1.98 31 3 C20.77 3 10.54 3 0 3 C0 2.01 0 1.02 0 0 Z " fill="#FDD73D" transform="translate(1378,833)"/>
<path d="M0 0 C10.23 0 20.46 0 31 0 C31 0.99 31 1.98 31 3 C20.77 3 10.54 3 0 3 C0 2.01 0 1.02 0 0 Z " fill="#FDD73D" transform="translate(1322,833)"/>
<path d="M0 0 C10.23 0 20.46 0 31 0 C31 0.99 31 1.98 31 3 C20.77 3 10.54 3 0 3 C0 2.01 0 1.02 0 0 Z " fill="#FED83D" transform="translate(1267,833)"/>
<path d="M0 0 C10.23 0 20.46 0 31 0 C31 0.99 31 1.98 31 3 C20.77 3 10.54 3 0 3 C0 2.01 0 1.02 0 0 Z " fill="#FDD73D" transform="translate(1212,833)"/>
<path d="M0 0 C10.23 0 20.46 0 31 0 C31 0.99 31 1.98 31 3 C20.77 3 10.54 3 0 3 C0 2.01 0 1.02 0 0 Z " fill="#FDD73D" transform="translate(1156,833)"/>
<path d="M0 0 C10.23 0 20.46 0 31 0 C31 0.99 31 1.98 31 3 C20.77 3 10.54 3 0 3 C0 2.01 0 1.02 0 0 Z " fill="#FDD83D" transform="translate(1042,833)"/>
<path d="M0 0 C10.23 0 20.46 0 31 0 C31 0.99 31 1.98 31 3 C20.77 3 10.54 3 0 3 C0 2.01 0 1.02 0 0 Z " fill="#FCD73D" transform="translate(986,833)"/>
<path d="M0 0 C10.23 0 20.46 0 31 0 C31 0.99 31 1.98 31 3 C20.77 3 10.54 3 0 3 C0 2.01 0 1.02 0 0 Z " fill="#FED83D" transform="translate(931,833)"/>
<path d="M0 0 C10.23 0 20.46 0 31 0 C31 0.99 31 1.98 31 3 C20.77 3 10.54 3 0 3 C0 2.01 0 1.02 0 0 Z " fill="#FDD83D" transform="translate(876,833)"/>
<path d="M0 0 C10.23 0 20.46 0 31 0 C31 0.99 31 1.98 31 3 C20.77 3 10.54 3 0 3 C0 2.01 0 1.02 0 0 Z " fill="#FCD73D" transform="translate(820,833)"/>
<path d="M0 0 C10.23 0 20.46 0 31 0 C31 0.99 31 1.98 31 3 C20.77 3 10.54 3 0 3 C0 2.01 0 1.02 0 0 Z " fill="#FED83D" transform="translate(765,833)"/>
<path d="M0 0 C10.23 0 20.46 0 31 0 C31 0.99 31 1.98 31 3 C20.77 3 10.54 3 0 3 C0 2.01 0 1.02 0 0 Z " fill="#FDD83D" transform="translate(710,833)"/>
<path d="M0 0 C10.23 0 20.46 0 31 0 C31 0.99 31 1.98 31 3 C20.77 3 10.54 3 0 3 C0 2.01 0 1.02 0 0 Z " fill="#FCD73D" transform="translate(654,833)"/>
<path d="M0 0 C10.23 0 20.46 0 31 0 C31 0.99 31 1.98 31 3 C20.77 3 10.54 3 0 3 C0 2.01 0 1.02 0 0 Z " fill="#FED83D" transform="translate(599,833)"/>
<path d="M0 0 C10.23 0 20.46 0 31 0 C31 0.99 31 1.98 31 3 C20.77 3 10.54 3 0 3 C0 2.01 0 1.02 0 0 Z " fill="#FDD83D" transform="translate(429,833)"/>
<path d="M0 0 C10.23 0 20.46 0 31 0 C31 0.99 31 1.98 31 3 C20.77 3 10.54 3 0 3 C0 2.01 0 1.02 0 0 Z " fill="#FDD83D" transform="translate(374,833)"/>
<path d="M0 0 C10.23 0 20.46 0 31 0 C31 0.99 31 1.98 31 3 C20.77 3 10.54 3 0 3 C0 2.01 0 1.02 0 0 Z " fill="#FDD83D" transform="translate(263,833)"/>
<path d="M0 0 C10.23 0 20.46 0 31 0 C31 0.99 31 1.98 31 3 C20.77 3 10.54 3 0 3 C0 2.01 0 1.02 0 0 Z " fill="#FDD83D" transform="translate(208,833)"/>
<path d="M0 0 C10.23 0 20.46 0 31 0 C31 0.99 31 1.98 31 3 C20.77 3 10.54 3 0 3 C0 2.01 0 1.02 0 0 Z " fill="#FDD83D" transform="translate(97,833)"/>
<path d="M0 0 C10.23 0 20.46 0 31 0 C31 0.99 31 1.98 31 3 C20.77 3 10.54 3 0 3 C0 2.01 0 1.02 0 0 Z " fill="#FDD83D" transform="translate(42,833)"/>
<path d="M0 0 C9.9 0 19.8 0 30 0 C30 0.99 30 1.98 30 3 C20.1 3 10.2 3 0 3 C0 2.01 0 1.02 0 0 Z " fill="#FFD93D" transform="translate(485,833)"/>
<path d="M0 0 C9.9 0 19.8 0 30 0 C30 0.99 30 1.98 30 3 C20.1 3 10.2 3 0 3 C0 2.01 0 1.02 0 0 Z " fill="#FFD93D" transform="translate(319,833)"/>
<path d="M0 0 C9.9 0 19.8 0 30 0 C30 0.99 30 1.98 30 3 C20.1 3 10.2 3 0 3 C0 2.01 0 1.02 0 0 Z " fill="#FFD93D" transform="translate(153,833)"/>
<path d="M0 0 C2.86688248 0.09096556 5.70300515 0.23767988 8.5625 0.4375 C9.36880859 0.48970703 10.17511719 0.54191406 11.00585938 0.59570312 C13.00421738 0.72577376 15.00215386 0.86229056 17 1 C17 1.99 17 2.98 17 4 C8.585 4.495 8.585 4.495 0 5 C-0.33 3.68 -0.66 2.36 -1 1 C-0.67 0.67 -0.34 0.34 0 0 Z " fill="#FAD63E" transform="translate(1,832)"/>
<path d="M0 0 C-0.33 1.32 -0.66 2.64 -1 4 C-6.28 3.67 -11.56 3.34 -17 3 C-17 2.01 -17 1.02 -17 0 C-14.54203147 -0.19436491 -12.08390706 -0.3807742 -9.625 -0.5625 C-8.92632813 -0.61857422 -8.22765625 -0.67464844 -7.5078125 -0.73242188 C-2.2265625 -1.11328125 -2.2265625 -1.11328125 0 0 Z " fill="#FFD93D" transform="translate(2229,833)"/>
</svg>
